<?xml version="1.0" encoding="UTF-8"?>
<svg id="Layer_2" data-name="Layer 2" xmlns="http://www.w3.org/2000/svg" xmlns:xlink="http://www.w3.org/1999/xlink" viewBox="0 0 595.28 485">
  <defs>
    <style>
      .cls-1 {
        fill: none;
      }

      .cls-2 {
        fill: #054067;
      }

      .cls-3 {
        fill: #036380;
      }

      .cls-4 {
        fill: #fdfdfe;
      }

      .cls-5 {
        fill: #068c94;
      }

      .cls-6 {
        fill: #024a6f;
      }

      .cls-7 {
        fill: #0b6f87;
      }

      .cls-8 {
        fill: #000d3b;
      }

      .cls-9 {
        fill: #0a8e95;
      }

      .cls-10 {
        fill: #04254e;
      }

      .cls-11 {
        fill: #025275;
      }

      .cls-12 {
        fill: #0d8792;
      }

      .cls-13 {
        fill: #142c54;
      }

      .cls-14 {
        fill: #edf1f4;
      }

      .cls-15 {
        fill: #f6f7f9;
      }

      .cls-16 {
        fill: #0d768a;
      }

      .cls-17 {
        fill: #036d85;
      }

      .cls-18 {
        fill: #0c2a52;
      }

      .cls-19 {
        fill: #fafbfc;
      }

      .cls-20 {
        fill: #05264e;
      }

      .cls-21 {
        fill: #dddfe5;
      }

      .cls-22 {
        fill: #bdbdc9;
      }

      .cls-23 {
        fill: #fbfbfc;
      }

      .cls-24 {
        fill: #067c8d;
      }

      .cls-25 {
        fill: #072850;
      }

      .cls-26 {
        fill: #bbbbc7;
      }

      .cls-27 {
        fill: #f9f9f9;
      }

      .cls-28 {
        fill: #025b7b;
      }

      .cls-29 {
        fill: #f8f9fa;
      }

      .cls-30 {
        fill: #13939b;
      }

      .cls-31 {
        fill: #0a345c;
      }

      .cls-32 {
        fill: #8994a8;
      }

      .cls-33 {
        fill: #da8e1e;
      }

      .cls-34 {
        fill: #263961;
      }

      .cls-35 {
        clip-path: url(#clippath);
      }

      .cls-36 {
        fill: #0b7e8e;
      }

      .cls-37 {
        fill: #082850;
      }

      .cls-38 {
        fill: #f7f8f9;
      }

      .cls-39 {
        fill: #088893;
      }
    </style>
    <clipPath id="clippath">
      <rect class="cls-1" width="595.28" height="485"/>
    </clipPath>
  </defs>
  <g id="Layer_1-2" data-name="Layer 1">
    <g class="cls-35">
      <g>
        <path class="cls-10" d="M94.37,319.4c-2.18-.35-3.12-1.75-3.29-3.76-.19-2.3.77-3.86,3.47-4.68.68-.13.96-.15,1.24-.15,49.77,0,99.55-.02,149.32-.02.98,0,1.97,0,2.95,0-4.99-1.24-10-2.18-15.05-2.55-15.41-1.12-30.84-2.02-46.26-3.01-5.98-.22-11.97-.44-18.45-.67-1.65.01-2.79.05-3.94.08-1.32-.11-2.64-.22-4.41-.35-21.1-.22-41.75-.43-62.39-.62-2.22-.02-4.41-.03-5.87-2.07-.21-1.34-.61-2.68-.61-4.01-.03-57.26-.02-114.51,0-171.77,0-1.54.17-3.08.6-4.83,2.79-2.37,5.72-2.66,8.83-2.38,2.38.21,4.76.52,7.14.47,2.36-.05,5.02.6,6.8-1.77-.05-.19-.1-.39.15-.73.74-.15,1.19-.15,1.69.1.02,3.56-.02,6.87-.25,10.21-1.31.96-1.35,1.69.24,2.34.02.43-.02.67-.2.93-.29.1-.43.18-.58.27.24.09.48.18.77.52.02,6.49-.02,12.72-.26,18.99-1.17,1.09-1.51,2.05.26,2.95.02,1.91-.02,3.58-.27,5.29-.33,3.58-.44,7.1-.51,10.62,0,.09.48.2.79.55.02,3.01-.02,5.77-.25,8.56-1.29.96-1.34,1.7.25,2.41.02,5.75-.01,11.26-.24,16.79-1.3.96-1.34,1.7.24,2.34.02.43-.02.67-.27.97-1.04,1.75-1.79,3.44.28,5.14.02,2.09-.02,3.94-.27,5.84-.44,2.42-.7,4.78-.82,7.15-.02.33.67.69,1.08,1.28.02,3.38-.02,6.5-.24,9.66-1.29,1.41-1.32,2.69.25,4.06.08,14.14.1,28.03-.09,41.93-2.15-.29-4.95,2.01-4.36,3.66.53,1.49,1.75,2.74,2.73,4.17.07.07.05.27.07.43.18.3.33.44.48.59-.01,0,0-.02.03.17.44.35.86.52,1.26.75-.02.07.05-.05.01.16.34.51.72,1.06,1.1,1.07,3.54.07,7.09.07,10.64.02.69,0,1.38-.31,2.31-.5,18.73,1.89,37.27,3.45,55.7,5.85,12.23,1.59,24.3,4.39,36.64,6.74,10.52,3.02,20.84,5.95,31.21,9.07.98.59,1.91.99,2.84,1.39l.39-.92c-.9-.43-1.81-.86-2.71-1.29,0,0,0,0-.02-.2-.19-1-.36-1.79-.33-2.54,1.76,1.08,3.32,2.11,4.95,3.33,1.49,2.36,2.55-.72,3.87-.07.19-.82.55-1.65.55-2.47.04-5.66-.03-11.32.06-16.98.01-.81.66-1.62,1.01-2.42.38.77,1.08,1.53,1.08,2.3.08,8.58.07,17.17.04,25.75-.01,4.17-2.07,6.17-6.38,6.18-12.3.02-24.6,0-36.9,0-1.21,0-2.41,0-3.62,0-.14.24-.29.47-.43.71,3.96,2.84,7.93,5.68,11.95,8.87-1.27,1.39-1.51,3.84-3.99,3.41,0,0-.24-.02-.34-.27-.35-.32-.6-.39-.85-.47,0,0-.19-.07-.15-.21-.03-.12-.11-.09-.18-.06-4.96-3.82-9.93-7.65-15.07-11.83-1.13-.56-2.08-.92-3.03-.92-36.48-.03-72.95-.02-109.43,0-.97,0-1.95.31-2.92.48Z"/>
        <path class="cls-20" d="M176.36,398.1c.96-2.7,1.14-6.06,2.92-7.43,1.64-1.26,4.99-.43,7.59-.42,2.5.01,5.61-.69,7.32.49,1.57,1.09,1.67,4.26,2.38,6.52,5.47,17.65,10.93,35.3,16.4,52.94.2.66.48,1.3.91,2.49,2.64-9.91,5.1-19.26,7.62-28.59,2.81-10.43,5.72-20.83,8.45-31.28.54-2.07,1.48-2.71,3.62-2.63,4.64.17,9.29.05,14.27.05-2.86,9.86-5.61,19.43-8.4,29-5.03,17.23-10.13,34.43-15.05,51.69-.76,2.68-1.72,3.97-4.84,3.7-3.79-.34-7.65-.17-11.47-.04-1.8.06-2.53-.49-3.07-2.23-5.81-18.68-11.73-37.32-17.63-55.97-.21-.68-.49-1.33-.93-2.52-3,9.57-5.84,18.62-8.66,27.68-3.18,10.21-6.4,20.41-9.48,30.65-.55,1.83-1.36,2.43-3.28,2.37-4.38-.13-8.77.06-13.15-.08-.79-.03-2.04-.87-2.25-1.58-7.99-27.1-15.88-54.23-23.78-81.36-.1-.33-.08-.7-.15-1.32,5.24,0,10.35-.06,15.47.08.65.02,1.65,1.02,1.85,1.74,4.92,17.79,9.75,35.61,14.61,53.42.6,2.2,1.21,4.4,1.99,7.28,5.68-18.55,11.17-36.5,16.74-54.64Z"/>
        <path class="cls-20" d="M531.38,474.55c-4.08,0-7.9-.06-11.73,0-1.4.03-2.15-.3-2.62-1.75-6.21-18.93-12.49-37.84-18.75-56.76-.17-.5-.22-1.04-.36-1.71h16.19c4,13.38,7.98,26.72,12.13,40.61,4.62-13.94,9.04-27.29,13.49-40.74,4.02,0,7.94.11,11.84-.05,1.95-.08,2.01,1.23,2.39,2.38,4.04,12.16,8.06,24.32,12.09,36.48.17.5.38.99.77,1.99.41-1.19.7-1.91.92-2.66,3.54-11.94,7.12-23.86,10.56-35.83.53-1.86,1.34-2.41,3.26-2.35,4.45.14,8.91.05,13.7.05-2.3,7.03-4.48,13.73-6.69,20.41-4.14,12.53-8.33,25.03-12.4,37.58-.58,1.8-1.4,2.45-3.34,2.36-3.35-.16-6.73-.21-10.07.03-2.48.18-3.5-.61-4.26-2.98-3.83-11.92-7.91-23.77-12.05-36.09-.68,1.91-1.26,3.42-1.77,4.95-3.59,10.66-7.19,21.32-10.75,31.99-.39,1.17-.61,2.37-2.56,2.08Z"/>
        <path class="cls-18" d="M3.64,474.21c-3.03-.58-3.63-2.77-3.63-5.32-.01-8.78,0-17.56,0-26.33,0-12.44,0-24.87.02-37.31,0-4.01,1.67-5.77,6.14-6.29,0,1.09,0,2.15,0,3.2,0,20.21,0,40.42,0,60.62,0,4.13.39,4.46,4.67,4.51,8.95.1,17.9.19,26.85.44,2.28.06,4.54.71,7.06.59-1.13-.57-2.21-1.24-3.38-1.7-8.62-3.37-17.64-4.5-26.86-4.48-4.88,0-5.48-.61-5.48-5.33.01-20.48,0-40.96.02-61.45,0-5.21,1.88-7,7.28-7.05,12.5-.12,22.54,2.47,34.65,8.92,10.44-6.46,21.98-8.81,34.13-8.97,2.94-.04,5.3.92,6.33,4.1-.27.71-.41,1.06-.41,1.41,0,22.2.03,44.41.02,66.65-.03.03-.09.1-.17.1s-.18.17-.18.17c0,0,.16.09.19.14.03.05.1.14.1.14-1.34.4-2.67,1.13-4.01,1.14-10.45.05-20.6,1.38-30.42,6.21-.45.41-.56.64-.67.88.39-.1.78-.2,1.17-.31,11.03-2.67,22.27-1.32,33.43-1.62,1.68-.05,3.47.18,4.1-2.44-.01-1.39-.06-2.33-.12-3.27.04-.25.08-.5.13-1.11-.04-.59-.09-.83-.07-1.33.02-3.76-.03-7.27,0-11.02.02-4.64-.03-9.03-.02-13.63.02-.63-.02-1.06.01-1.73.03-3.73-.02-7.2,0-10.93.02-7.05-.02-13.85,0-20.85.05-.77.04-1.33.02-1.9,3.22-.47,5.01,1.17,5.85,4.29-.27.8-.41,1.25-.41,1.69-.01,21.02-.02,42.04.01,63.06,0,.75.4,1.5.61,2.25-1.01,1.28-2.02,2.56-3.39,3.67-11.8-.24-23.24-.32-34.68-.33-.39,0-.78.58-1.17.89-.82.53-1.8.93-2.42,1.62-4.46,4.99-11.65,5.08-16.1.17-.54-.59-1.26-1.01-2.12-1.83-.98-.51-1.73-.89-2.49-.89-10.76-.04-21.52-.04-32.27,0-.77,0-1.54.36-2.31.56M49.34,400.41c-10.23-6.79-21.84-8.44-33.82-8.7-1.72-.04-2.19.89-2.18,2.45.02,19.92,0,39.83-.04,59.75,0,1.75.66,2.42,2.44,2.51,3.53.18,7.09.32,10.57.86,8.15,1.26,16.02,3.38,23.07,8.6.43-.87,1.22-1.73,1.23-2.6.07-20.14.06-40.27,0-60.41,0-.75-.61-1.49-1.27-2.45M52,450.98v14.39c.49,0,.71.07.83,0,9.73-6.32,20.62-8.7,32.09-8.95,2.14-.05,2.69-.8,2.67-2.77-.08-8.04-.02-16.08-.02-24.12,0-11.7-.03-23.39-.02-35.09,0-1.52-.11-2.75-2.15-2.73-11.08.1-21.65,2.17-31.39,7.6-1.58.88-2.09,1.96-2.08,3.74.08,15.81.06,31.62.06,47.95M46.1,469.4c-.28-.28-.56-.57-.86-.83-.02-.02-.25.2-.38.3.29.27.59.54,1.25.53Z"/>
        <path class="cls-25" d="M305.9,286.63c-2.49-2.36-4.86-4.56-7.17-6.81-1.21-1.18-2.86-2.17-1.72-4.4.2-.4-.95-1.55-1.59-2.26-.74-.81-1.6-1.51-2.39-2.23-22.91,15.5-51.01,7.18-63.45-11.02-12.67-18.52-9.05-43.34,8.72-57.85,17.52-14.31,43.41-13.05,59.8,2.9,16.19,15.76,17.45,40.88,2.4,58.96,2.21,1.35,4.37,2.65,6.5,3.98.62.39,1.23.83,1.75,1.33,5.18,5,10.35,10.02,15.51,15.05,3.17,3.09,3.2,6.83.11,9.89-3.3,3.26-6.99,3.38-10.32.26-2.7-2.52-5.34-5.11-8.14-7.8M259.21,270.23c2.12.27,4.24.71,6.37.77,18.9.53,35.23-13.26,37.04-31.21,1.95-19.22-10.76-35.73-30-39-19.31-3.27-37.96,9.3-41.62,28.06-3.74,19.17,8.34,37.13,28.2,41.38Z"/>
        <path class="cls-20" d="M438.3,467.46c-12.89-12.61-12.85-34.33-.05-46.31,9.6-8.99,26.33-11.11,39.25-4.97,11.33,5.39,17.9,17.44,16.73,30.67-1.67,18.84-16.56,30.68-36.01,28.8-7.47-.72-14.18-3-19.91-8.19M478.04,448.68c.07-2.37.41-4.76.17-7.1-1.06-10.59-9.82-17.26-19.95-15.34-6.71,1.28-11.08,5.22-12.74,11.62-1.99,7.66-1.3,14.98,4.92,20.79,7.49,7.01,24.53,5.59,27.6-9.98Z"/>
        <path class="cls-20" d="M340.15,474.55c-3.25,0-6.22,0-9.6,0,0-1.14,0-2.1,0-3.06,0-10.42,0-20.83,0-31.25,0-.91,0-1.83-.07-2.74-.57-7.35-4.29-11.17-11.2-11.53-6.76-.35-12.54,3.96-13.76,10.39-.34,1.78-.47,3.63-.48,5.45-.04,10.77-.02,21.55-.02,32.54h-15.56v-59.96h15.24v8.21c1.22-1.4,1.93-2.28,2.71-3.1,7.48-7.85,21.65-9.16,30.51-2.84,6.76,4.81,8.34,11.85,8.42,19.38.13,11.97.04,23.94.04,35.91,0,.72-.06,1.45-.12,2.61-1.98,0-3.9,0-6.1,0Z"/>
        <path class="cls-20" d="M417.8,471.99c.03.25.06.5-.15,1.04-4.12.4-8.01.39-11.88.65-2.37.16-2.96-.71-2.94-2.94.11-10.74.07-21.48,0-32.21,0-.92-.62-1.85-.95-2.77-1.69-6.82-5.57-9.97-12.07-9.8-6.58.17-11.55,4.22-12.8,10.53-.32,1.6-.45,3.26-.46,4.9-.05,10.06-.03,20.11-.04,30.17,0,.89,0,1.79,0,2.83h-15.64v-59.98h15.2v8.27c8.45-10.25,18.61-12.31,30.04-7.83,7.14,2.8,10.38,8.81,11.17,16.47-.24.57-.35.74-.35.91-.02,12.67-.04,25.34,0,38.01,0,.58.57,1.16.87,1.74Z"/>
        <path class="cls-5" d="M350.25,329.4c-3.17,0-6.06-.05-8.95.04-2.64.08-3.71-1.17-3.71-3.65.02-15.71.02-31.42.02-47.13,0-2.36,1.16-3.56,3.58-3.57,6.71-.01,13.42.02,20.13-.04,1.48-.01,1.95.56,1.93,1.95-.06,3.29-.02,6.58-.01,9.86.01,4.12,1.27,5.33,5.55,5.35,3.7.01,7.4,0,11.28,0,.06,1.18.14,2.07.14,2.96.02,10.05.02,20.09.03,30.14,0,3.52-.55,4.06-4.26,4.06-8.48,0-16.96,0-25.72.01M369.45,305.05c.64-.66,1.3-1.31,1.92-1.99,1.22-1.34.57-2.64-.71-3.08-.81-.28-2.27.34-3.03,1-4.36,3.82-8.59,7.77-13.58,12.33-1.13-1.34-2.68-3.27-4.33-5.13-1.05-1.18-2.47-1.3-3.26.06-.42.73-.26,2.33.3,2.96,1.96,2.19,4.3,4.05,6.32,6.18,1.7,1.79,2.99,1.6,4.59-.12,3.77-4.04,7.66-7.97,11.79-12.22Z"/>
        <path class="cls-16" d="M474.51,242.53c-2.26,1.46-3.13,2.97-2.07,5.96,1.38,3.88-.83,7.34-4.68,9.53-.93.53-1.86,1.5-2.22,2.48-12.53,33.93-34.8,59.96-66.53,78.48-.99-.38-1.65-.76-2.35-.86-1.96-.29-2.49-1.25-1.67-2.98,12.7-7.63,24.42-16.44,34.52-27.24,13.53-14.46,23.93-30.75,30.57-49.47-.66-.54-1.29-1.03-1.9-1.56-4.56-3.88-4.32-10.07.35-13.81,1.1-.88,2.09-2.3,2.4-3.63,1.41-6.15,2.51-12.37,3.85-18.54.36-1.64-.04-2.7-1.25-3.84-3.43-3.23-6.82-6.51-10.05-9.93-1.33-1.41-2.31-2.01-4.44-1.3-4.89,1.65-10.06-1.43-11.22-6.29-1.11-4.65,2.05-9.32,6.92-10.22,5.21-.97,9.9,2.19,10.68,7.21.1.63.29,1.38.05,1.9-1.48,3.08.43,4.82,2.44,6.69,2.69,2.5,5.23,5.16,8.43,8.34.7-7.01,1.65-13.3,1.88-19.62.3-8.21,0-16.44.05-24.67,0-1.49-.5-2.17-1.92-2.8-6.49-2.9-7.68-10.13-2.38-14.75,2.43-2.12-.04-3.8.2-5.86,3.83.87,4.62.23,4.41-3.53-.01-.19.31-.4.47-.59.76,2.59,1.53,5.19,2.17,8.13-1.01,1.16-1.89,1.97-2.72,2.72.87.71,1.5,1.22,1.91,1.75-1.19.22-2.17.43-3.14.44-.47-.57-1.08-1.32-1.37-1.21-.7.26-1.26.91-1.87,1.41.61.57,1.22,1.14,1.78,1.93-.54,2.32-.04,4.23,2.03,5.01,1.2.46,2.98.37,4.13-.18,2.02-.98,2.2-2.96,1.8-5.02,2.46-.17,3.2-1.46,3.03-3.46,3.28,4.23,2.59,9.26-1.92,12.38-1.34.93-1.81,1.83-1.71,3.34,1.63,24.49-2,48.47-7.65,72.33,2.98,2.09,3.94-1.23,6-1.82,1.14,1.14,2.07,2.16,3,3.17M460.18,248.31c-.85,2.14-.54,4.24,1.6,5.17,1.27.55,3.33.38,4.57-.28,2.06-1.11,2.1-3.98.52-5.73-1.83-2.02-3.98-1.86-6.68.85M443.82,200.64c1.78,1.23,3.81,1.64,5.3,0,.9-.98,1.47-2.87,1.16-4.11-.27-1.1-1.85-2.44-3.03-2.64-1.19-.2-2.93.55-3.84,1.45-1.47,1.45-1.17,3.33.41,5.29Z"/>
        <path class="cls-37" d="M350.35,47.84c-.51,16.75-13.72,30.07-30.85,31.11-16.59,1-31.36-11.28-33.98-28.23-2.36-15.32,8.72-30.91,24.71-34.8,16.21-3.93,32.91,5.07,38.41,20.71.46,1.29.86,2.61,1.42,4.32.19,2.57.24,4.73.28,6.9M344.06,56.2c4-11.91.53-23.43-9.33-30.93-9.28-7.05-21.65-7.59-31.7-1.38-14.67,9.07-17.54,29.69-5.6,41.17,4.65-7.62,11.83-9.72,20.45-9.7,8.57.02,15.81,1.99,20.93,10.25,1.9-3.35,3.5-6.18,5.25-9.41Z"/>
        <path class="cls-13" d="M262.92,307.16c-1.27-.47-2.34,2.61-3.62.3.31-.15.47-.14.63-.18.07-.02.16-.18.15-.2-1.63-1.95-3.15-4.01-4.94-5.8-12.55-12.53-28.29-19.72-44.93-25.22-23.68-7.83-48.22-11.01-73.03-12.57-2.33-.15-4.17-.76-5.41-2.99-.1-.98-.18-1.73-.19-2.69.09-21.4.1-42.59.1-63.78,0-.81-.12-1.63-.12-2.64.02-.6-.02-1,.02-1.65.08-18.41.09-36.58.07-54.74,0-7.48-.1-14.95-.08-22.64-.45-1.35,1.51-3.48-1.6-3.74-1.76-.1-3.3-.13-5.09-.22-1.64-.08-3.03-.11-4.42-.12-3.65-.03-4.03.34-4.07,3.81-.02,1.45-.11,2.9-.16,4.34-.45,0-.9,0-1.57.02-.27-1.9-.39-3.82-.36-5.73.05-3.02,1.57-4.53,4.67-4.57,4.09-.06,8.18-.01,12.73-.01,0-2.64-.02-5.44,0-8.24.03-3.16,1.43-4.68,4.54-4.6,26.54.68,52.9,2.74,78.43,10.55,17.02,5.21,32.6,12.94,45.62,25.21,3.84,3.62,5.78,7.42,5.59,12.94-.47,13.52-.17,27.06-.2,40.6,0,1.16.48,2.85-2.04,2.2-.03-.77-.1-1.57-.1-2.37-.01-14.17-.12-28.35.06-42.52.04-3.24-1.11-5.49-3.3-7.71-9.58-9.7-21.05-16.54-33.64-21.72-17.44-7.18-35.78-10.79-54.49-12.61-11.41-1.11-22.87-1.66-34.32-2.32-4.05-.23-4.07-.04-4.07,3.91,0,51.58.01,103.15.02,154.73,0,6.76,0,6.84,6.82,7.33,20.6,1.49,41.02,4.11,60.95,9.67,17.61,4.91,34.5,11.45,48.79,23,4.62,3.73,8.36,8.51,12.55,13Z"/>
        <path class="cls-26" d="M353.6,92.3c2.14,0,4.01.06,5.88,0,2.4-.08,3.52,1.26,3.54,3.33.04,3.83-.29,7.66-.28,11.48.02,5.2.25,10.39.32,15.59.05,4.09-.65,4.71-4.9,4.71-8.86,0-17.73.01-26.59-.01-3.71,0-4.28-.56-4.29-4.07-.01-9.05,0-18.1,0-27.15,0-3.19.65-3.84,3.93-3.85,7.37-.03,14.74-.01,22.39-.02M335.62,107.63c6.22-.02,12.45.03,18.66-.12.9-.02,1.77-1,2.66-1.53-.81-.71-1.61-2.01-2.44-2.03-6.4-.16-12.81-.15-19.22.01-.8.02-1.56,1.2-2.35,1.84.72.61,1.45,1.22,2.68,1.83M345.49,113.18c3.17-.01,6.34.04,9.51-.08.66-.02,1.29-.66,1.93-1.01-.6-.54-1.2-1.54-1.81-1.55-6.62-.12-13.24-.14-19.86-.02-.73.01-1.44,1.05-2.15,1.61.77.34,1.53.95,2.32.98,3.17.12,6.34.06,10.07.08M344.23,117.54c-2.88,0-5.76-.11-8.63.07-.74.05-1.43.98-2.14,1.5.7.4,1.38,1.12,2.09,1.14,3.52.11,7.06.1,10.58-.01.75-.03,1.47-.7,2.21-1.07-.73-.54-1.42-1.15-2.22-1.59-.35-.19-.91-.04-1.89-.04Z"/>
        <path class="cls-3" d="M365.77,259.08c.68,4.26-.18,5.97-5.21,5.68-3.87-.22-7.77-.08-11.85-.42.6-1.12,1.4-1.91,2.41-2.9.56-2.88,1.28-6.16,1.79-9.47.17-1.11-.23-2.3-.32-3.45-.15-1.95-.85-4.09-.26-5.8,1.04-2.99,3.68-5.58,1.47-9.07-.06-.09.12-.33.18-.5,1.02-2.93,2.05-5.85,3.05-8.78.17-.5.48-1.1.34-1.55-1.25-4.13-.83-8.3.62-12.15,1.48-3.91,2.78-7.72,2.87-11.95.07-3.51,1.91-7.26-2.12-9.89-.1-.07-.06-.35.04-.61.24-.26.35-.43.68-.7,4.96-.31,9.68-.54,14.51-.55-.08.74-.1,1.59-.45,1.75-1.99.91-1.57,1.94-.34,3.12.33.32.88.71.86,1.03-.25,3.52.07,7.26-1.14,10.45-.76,2.03-1.13,3.62-1.05,5.76.11,3.07-.37,6.26-1.18,9.24-.52,1.93-2.35,3.48-3.1,5.39-.5,1.25-.38,2.87-.12,4.25.57,2.9,3.11,2.58,5.29,2.75-1.76,1.78-3.33,3.83-5.35,5.25-1.28.9-1.46,1.74-1.7,3.22-.51.56-.82.87-.82,1.18-.04,5.75-.07,11.5-.01,17.25,0,.48.6.95.92,1.43Z"/>
        <path class="cls-9" d="M342.41,136.17c5.96,0,11.65.07,17.33-.05,2.65-.05,3.69.98,3.67,3.55-.08,9.22-.03,18.45-.06,27.67-.01,3.29-.63,3.91-3.88,3.91-8.29.02-16.59-.04-24.88,0-2.49.01-3.52-1.01-3.51-3.45.05-9.31-.03-18.63,0-27.94.01-3.17.58-3.64,3.77-3.67,2.42-.02,4.85-.02,7.55-.03M346.05,147.14c3.17,0,6.35.08,9.51-.08.67-.03,1.29-.95,1.93-1.46-.63-.54-1.25-1.53-1.9-1.55-5.5-.13-11.01-.14-16.51,0-.71.02-1.4,1.07-2.09,1.65.69.49,1.34,1.34,2.07,1.41,2.13.19,4.28.06,6.99.04M341.64,152.44c-.56,0-1.19-.17-1.66.03-1.04.43-2,1.05-2.99,1.59.95.5,1.88,1.41,2.85,1.44,4.93.15,9.88.14,14.81,0,.96-.03,1.89-.91,2.84-1.4-1-.55-1.98-1.52-3-1.57-4.09-.18-8.2-.07-12.84-.08M337.59,161.09c-1.17,2.06.13,2.71,1.84,2.77,2.96.1,5.94.1,8.9-.11.73-.05,1.39-1.06,2.08-1.62-.65-.53-1.28-1.51-1.94-1.52-3.51-.05-7.02.13-10.87.48Z"/>
        <path class="cls-10" d="M274.16,432.48c0,14.07,0,27.86,0,41.86h-15.56v-59.97h15.56c0,6.01,0,11.92,0,18.11Z"/>
        <path class="cls-28" d="M358.65,188.31c.03.18-.01.46.09.53,4.03,2.63,2.2,6.38,2.12,9.89-.09,4.23-1.39,8.03-2.87,11.95-1.45,3.85-1.87,8.01-.62,12.15.13.44-.17,1.04-.34,1.55-1,2.93-2.03,5.86-3.05,8.78-.06.17-.24.41-.18.5,2.21,3.48-.43,6.07-1.47,9.07-.59,1.71.11,3.85.26,5.8.09,1.16.49,2.34.32,3.45-.51,3.31-1.23,6.59-1.79,9.47-1.01.99-1.81,1.79-2.67,2.84-.58.3-1.11.34-1.89.12-2.17-2.04-4.05-3.85-6-5.58-.63-.56-1.45-.93-2.18-1.38-.05-.76-.1-1.53.12-2.53,1.4-1.46,1.98-2.63-.1-3.5-.06-1.48-.12-2.97.1-4.7.8-.41,1.52-.42,1.83-.77.94-1.06,1.89-2.19,2.47-3.45.14-.32-1.12-1.23-1.7-1.89-.68-.78-1.97-1.7-1.85-2.36.17-.93,1.23-2.07,2.18-2.44,4.42-1.74,4.34-4.58,3.59-7.84-.76-3.29-.32-6.19.58-9.25.37-1.24.25-2.62.3-3.94.12-2.93-.1-5.9.39-8.77,1-5.87,3.18-11.62,1.43-17.67,3.82,0,7.37,0,10.93,0,0,0,0,0,0,0Z"/>
        <path class="cls-18" d="M283.37,172.82c-4.47-4.03-4.24-6.73,1.11-9.61,2.57-1.38,5.41-2.3,8.33-3.51,1.73,4.04,3.48,7.67,4.82,11.43.83,2.33,2.42,3.21,4.62,3.76,11.72,2.89,23.66,4.09,35.69,4.61,17.18.73,34.31.31,51.34-2.2,4.41-.65,8.78-1.67,13.09-2.8,1.09-.29,2.3-1.49,2.74-2.56,1.64-3.97,2.99-8.05,4.54-12.37,4.63,1.04,9.01,2.42,12.55,5.56,2.17,1.93,2.06,3.49-.26,6.45-2.8,1.56-5.23,3.14-7.89,4.13-10.44,3.89-21.42,5.43-32.46,6.47-21.21,2-42.42,2-63.58-.54-11.92-1.43-23.81-3.2-34.65-8.81Z"/>
        <path class="cls-22" d="M404.55,141.3c-3.34,0-6.49,0-9.62-.25-5.36-.43-10.71-1.08-16.07-1.52-2.12-.17-3.05-1.13-2.9-3.15.46-6.26.95-12.52,1.41-18.78.15-2.09.25-4.18.36-6.27.11-1.99.84-3.36,3.21-3.18,8.15.6,16.3,1.13,24.44,1.81,2.01.17,2.96,1.31,2.74,3.58-.76,7.88-1.25,15.78-1.98,23.66-.13,1.35-.92,2.65-1.61,4.1M396.89,118.63c1.1.14,2.23.51,3.3.37.87-.11,1.66-.83,2.48-1.27-.69-.61-1.3-1.58-2.09-1.74-1.71-.36-3.51-.31-5.27-.44-3.43-.25-6.85-.58-10.29-.69-.71-.02-1.45.75-2.17,1.16.63.51,1.21,1.39,1.89,1.47,3.87.48,7.76.78,12.15,1.15M389.83,125.72c3.33.2,6.66.46,9.99.53.61.01,1.24-.77,1.87-1.18-.54-.49-1.04-1.36-1.63-1.42-5.16-.48-10.33-.86-15.51-1.13-.7-.04-1.45.71-2.18,1.09.75.53,1.44,1.34,2.28,1.54,1.51.37,3.11.38,5.18.58M387.93,132.88c1.01.11,2.05.43,3.01.26.78-.13,1.45-.85,2.17-1.31-.54-.54-1.03-1.48-1.64-1.56-2.55-.36-5.14-.55-7.72-.6-.63-.01-1.27.76-1.9,1.17.49.53.89,1.38,1.48,1.53,1.32.35,2.73.35,4.61.5Z"/>
        <path class="cls-36" d="M469.05,141.4c-.16.41-.48.62-.47.81.21,3.76-.58,4.4-4.41,3.31-4.64-12.01-10.11-23.47-17.4-34.06-13.02-18.91-29.44-34.34-49.4-46.62.15-2.01-1.33-4.01,1.02-4.8l2.27-.18c11.22,6.28,21.16,14.21,30.32,23.08,17.15,16.6,30.09,35.87,38.07,58.46Z"/>
        <path class="cls-17" d="M372.89,230.68c-2.32-.12-4.87.21-5.44-2.69-.27-1.38-.38-3,.12-4.25.76-1.91,2.58-3.46,3.1-5.39.81-2.99,1.3-6.17,1.18-9.24-.08-2.14.29-3.74,1.05-5.76,1.2-3.19.89-6.94,1.14-10.45.02-.33-.53-.72-.86-1.03-1.23-1.19-1.65-2.21.34-3.12.35-.16.38-1.01.57-1.73.02-.19.16,0,.41.07,1.77-.2,3.29-.47,5.02-.81,3.25-.39,6.28-.72,9.32-.79.35,3.08.46,5.96,1.1,8.72.66,2.85,2.09,5.53,2.7,8.39.51,2.4,1.59,3.54,4.04,3.46-7.88,8.19-15.76,16.39-23.79,24.64Z"/>
        <path class="cls-18" d="M183.6,91.66c3.78-4.39,7.5-8.95,11.77-12.95,17.54-16.48,38.04-28.03,61.36-34.77.34-.1.66-.27,1.14-.46-.46-1.9-.9-3.74-1.47-6.1,6.5,1.52,12.66,2.97,19.42,4.55-5.18,4.38-9.93,8.39-14.94,12.63-.58-2.13-1.06-3.87-1.71-6.24-6.9,2.63-13.77,4.91-20.35,7.82-18.26,8.06-34.04,19.55-47.41,34.14-1.85,2.02-3.54,2.55-5.96,1.82-.53-.16-1.09-.23-1.83-.43Z"/>
        <path class="cls-11" d="M347.45,188.31c2,6.05-.17,11.8-1.17,17.67-.49,2.86-.27,5.84-.39,8.77-.06,1.32.06,2.7-.3,3.94-.9,3.06-1.34,5.97-.58,9.25.76,3.27.84,6.1-3.59,7.84-.95.38-2.01,1.51-2.18,2.44-.12.66,1.16,1.58,1.85,2.36.58.66,1.85,1.57,1.7,1.89-.58,1.26-1.52,2.39-2.47,3.45-.31.35-1.03.36-1.75.53,1.19-7.44-3.37-12.15-8.19-17.01,1.44-4.69,3.34-8.98,2.68-13.79-.1-.73.59-1.53.72-2.33.13-.78.33-1.83-.06-2.36-1.51-2.05-1.58-4.15-.85-6.45.61-1.88,1.28-3.77,1.61-5.71.3-1.72.57-3.62.13-5.26-.79-2.98-.79-3.19,2.31-4.22.84-.28,1.42-1.3,2.32-2.02.96.02,1.73.08,2.63.35,1.95.36,3.76.5,5.58.65Z"/>
        <path class="cls-22" d="M316.44,129.78c.79,3.23,1.52,6.25,2.2,9.27.78,3.48.43,4.22-3.03,5.05-6.59,1.57-13.21,3.06-19.86,4.35-.85.16-2.67-.9-2.87-1.68-1.92-7.5-3.61-15.06-5.29-22.61-.39-1.75.3-2.94,2.29-3.39,6.8-1.52,13.58-3.11,20.35-4.72,2.13-.51,3.17.4,3.6,2.33.84,3.73,1.69,7.46,2.62,11.41M297.33,139.38c-1.53,1.38-.73,2.15.82,2.25,1.26.08,2.58-.26,3.85-.55,3.75-.84,7.49-1.75,11.24-2.63-.53-2.78-2.12-2.39-3.56-2.06-3.99.9-7.96,1.86-12.34,2.99M307.4,132.88c.45-.09.97-.08,1.34-.3.97-.58,1.88-1.25,2.81-1.89-1.2-.23-2.45-.83-3.58-.64-3.63.6-7.24,1.41-10.81,2.32-.84.21-1.5,1.11-2.24,1.69.95.32,1.97,1.04,2.83.89,3.09-.51,6.13-1.32,9.65-2.07M307.43,125.77c.82-.65,1.63-1.31,2.45-1.96-.99-.21-2.04-.75-2.96-.58-3.83.72-7.63,1.58-11.4,2.56-.82.21-1.47,1.1-2.19,1.68.94.32,1.97,1.06,2.81.9,3.64-.69,7.23-1.65,11.29-2.6Z"/>
        <path class="cls-6" d="M339.05,187.35c-.7.68-1.29,1.7-2.13,1.98-3.1,1.03-3.1,1.24-2.31,4.22.44,1.64.16,3.54-.13,5.26-.33,1.94-1,3.83-1.61,5.71-.74,2.29-.66,4.39.85,6.45.39.54.19,1.58.06,2.36-.13.8-.82,1.6-.72,2.33.66,4.81-1.24,9.1-2.79,13.64-4.06-3.9-7.96-7.94-11.92-12.38.21-2.23-.94-2.4-2.35-2.26-.5-.44-1.01-.87-1.48-1.66.69-2.2,1.62-4,1.92-5.9.33-2.06.67-4.46-.09-6.26-.97-2.31-.27-4.15.26-6.17.3-1.12,1-2.19,1.08-3.31.14-1.79,1.14-2.58,2.72-2.93,2.65-.59,5.32-1.15,8.19-1.76.63.02,1.05.08,1.53.34,1.7.2,3.34.2,5.22.17,1.39.03,2.53.11,3.67.18Z"/>
        <path class="cls-2" d="M328.41,186.7c-2.66.57-5.32,1.13-7.98,1.72-1.58.35-2.58,1.14-2.72,2.93-.09,1.12-.79,2.19-1.08,3.31-.53,2.02-1.23,3.86-.26,6.17.76,1.81.41,4.2.09,6.26-.3,1.9-1.23,3.7-1.98,5.74-7.3-7.04-14.51-14.27-21.71-21.5-2.66-2.68-5.53-5.2-7.92-8.09-1.85-2.24-3.1-4.95-4.62-7.45.27-.2.54-.39.82-.59.39.27.79.53,1.49.98,2.16,1.04,3.95,2.04,5.85,2.74,12.89,4.78,26.45,6.34,40.02,7.76Z"/>
        <path class="cls-14" d="M328.62,186.66c-13.79-1.38-27.34-2.95-40.23-7.72-1.9-.71-3.7-1.7-5.63-2.68,0-1.2.07-2.27.39-3.4,11.06,5.57,22.95,7.33,34.87,8.76,21.16,2.54,42.38,2.54,63.58.54,11.04-1.04,22.02-2.58,32.46-6.47,2.66-.99,5.09-2.58,7.79-3.96.32,1,.47,2.07.53,3.52-2.31,1.52-4.41,3.1-6.77,3.7-8.88,2.26-17.85,4.2-26.78,6.26-3.03.33-6.07.65-9.56,1.02-1.98.29-3.5.52-5.02.76,0,0-.14-.2-.26-.22-4.85.2-9.57.42-14.68.7-.48.1-.57.14-.93.13-5.72-.1-11.19-.13-16.65-.17-.77-.06-1.54-.12-2.5-.14-1.33-.03-2.48-.1-4.09-.21-2-.12-3.53-.21-5.06-.3-.42-.06-.84-.12-1.47-.14Z"/>
        <path class="cls-24" d="M388.84,185.47c8.92-2.31,17.89-4.25,26.77-6.51,2.36-.6,4.45-2.19,6.76-3.47.21.51.65,1.35.39,1.81-1.33,2.35-2.52,4.89-4.36,6.82-7.02,7.37-14.26,14.53-21.57,21.84-2.61.16-3.69-.99-4.19-3.38-.6-2.86-2.04-5.54-2.7-8.39-.64-2.76-.75-5.64-1.1-8.72Z"/>
        <path class="cls-18" d="M226.45,332.83c2.38.27,2.61-2.17,3.98-3.41,9.69,5.67,19.63,10.99,30.25,15.04,12.48,4.76,25.36,7.87,38.61,9.59,1.04.13,2.23-.09,3.21-.47,3.71-1.43,7.37-3,11.42-4.68,0,1.36,0,2.48-.25,3.8-2.61-1.28-4.86-1.08-7.29.25-1.75.96-3.74,1.9-5.68,2.03-2.59.18-4.96.25-6.35,2.44.52.48,1.06.98,1.6,1.47-15.45-1.78-30.28-5.87-44.3-12.36-8.62-3.99-16.75-9-25.2-13.72Z"/>
        <path class="cls-36" d="M474.69,242.46c-1.1-.95-2.03-1.97-2.99-3.19,3.55-3.11,7.16-5.98,10.68-8.96.77-.65,1.51-1.66,1.69-2.61,1.35-7.08,2.65-14.18,3.7-21.31.15-1.04-.93-2.38-1.7-3.39-2.72-3.6-2.31-8.7,1.06-11.68,3.29-2.92,8.7-2.94,12.04-.05,3.33,2.88,4.11,8.42,1.07,11.59-1.84,1.92-4.61,2.97-7.75,4.9-1.17,6.55-2.49,14.26-4,21.94-.25,1.3-1.08,2.74-2.1,3.59-3.74,3.15-7.67,6.08-11.7,9.16M494.97,194.24c-2.2-1.02-4.24-.56-5.23,1.5-.56,1.16-.56,3.39.21,4.17,1,1.01,3.14,1.69,4.56,1.41,3.16-.63,3.48-4.1.45-7.08Z"/>
        <path class="cls-22" d="M157.35,158.48c26.7,1.76,52.41,6.74,76.98,16.75,3.27,1.33,6.52,2.74,9.61,4.42,1.27.69,3.15,2.75,2.89,3.24-1.1,2.07-2.94.86-4.56.2-7.74-3.15-15.35-6.65-23.26-9.31-14.37-4.84-29.2-7.95-44.31-9.64-6.28-.7-12.59-1.13-18.88-1.71-1.02-.09-2.14-.11-2.99-.56-.65-.34-1.35-1.36-1.29-2.01.06-.63,1-1.55,1.67-1.66,1.25-.2,2.58.11,4.12.27Z"/>
        <path class="cls-15" d="M186.75,305.45c15.42.76,30.85,1.66,46.26,2.78,5.05.37,10.07,1.31,15.05,2.55-.98,0-1.97,0-2.95,0-49.77,0-99.55.02-149.32.02-.28,0-.56.02-1.1.02-.42-.42-.58-.84-1.02-1.95,3.19-.15,6.04-.39,8.89-.37,2.78.02,5.55.47,8.32.48,19.59.05,39.19.02,58.78.02h22.24c.07-.31.14-.62.21-.93-1.08-.24-2.15-.62-3.24-.68-1.24-.07-2.29-.11-2.14-1.95Z"/>
        <path class="cls-7" d="M400.55,59.71c-.65.21-1.41.27-2.16.33-2.35.79-.86,2.79-1.12,4.65-7.63-3.38-15.05-7.5-22.92-10.43-7.6-2.83-15.68-4.44-23.77-6.5-.27-2.08-.32-4.24-.37-6.64,14.88,2.21,28.9,7.17,42.24,14.02,2.71,1.39,5.34,2.95,8.12,4.58Z"/>
        <path class="cls-30" d="M204.71,134.91c-16.28-4.04-32.62-6.19-49.11-7.36-.65-.05-1.3-.07-1.96-.11-1.57-.08-2.71-.89-2.22-2.39.26-.78,1.72-1.72,2.58-1.67,5.3.3,10.59.8,15.88,1.35,17.01,1.8,33.73,4.99,49.99,10.3.27.09.54.14.8.25,1.48.6,3.8.78,3.05,3.07-.76,2.3-2.74,1.14-4.28.71-4.84-1.35-9.68-2.73-14.74-4.16Z"/>
        <path class="cls-26" d="M224.43,192.51c-14.71-5.1-29.61-8.61-44.82-10.66-8.36-1.13-16.81-1.59-25.23-2.32-1.61-.14-3.06-.34-2.99-2.39.08-2.19,1.7-2.08,3.23-1.96,24.88,2.09,49.46,5.59,72.94,14.45,1.44.54,3.16,1.05,2.47,2.91-.71,1.9-2.41,1.16-3.83.65-.52-.19-1.04-.4-1.76-.69Z"/>
        <path class="cls-25" d="M258.44,402.2c-2.63-4.45-2.34-8.74.66-11.77,2.96-2.99,8.05-3.77,11.91-1.81,3.67,1.86,5.61,5.76,4.8,9.91-.72,3.67-3.07,6.02-6.69,6.99-4.13,1.1-7.74.15-10.68-3.32Z"/>
        <path class="cls-22" d="M380.81,152.3c3.2.35,6.15.78,9.12.86,2.47.07,3.66.9,3.42,3.44-.42,4.35-.63,8.72-1.24,13.04-.11.8-1.72,2-2.61,1.98-4.26-.11-8.51-.65-12.77-.89-2.12-.12-3.12-.99-2.92-3.06.36-3.71.71-7.43,1.14-11.13.53-4.64.58-4.66,5.87-4.23M381.35,159.24c2.21.18,4.42.42,6.63.49.47.02.96-.58,1.44-.89-.47-.43-.9-1.17-1.42-1.23-2.38-.3-4.78-.48-7.18-.53-.65-.01-1.32.58-1.98.9.67.42,1.34.83,2.51,1.26M385.71,164.17c-2.02-.19-4.04-.46-6.06-.51-.58-.02-1.17.6-1.75.92.51.41.98,1.11,1.54,1.18,2.28.29,4.59.47,6.89.52.8.02,1.6-.45,2.41-.7-.84-.47-1.68-.93-3.02-1.41Z"/>
        <path class="cls-22" d="M181.96,200.15c-9.37-1.06-18.5-2.07-27.64-3.01-1.46-.15-2.93-.07-2.89-2.07.05-2.08,1.64-1.97,3.03-1.82,11.61,1.31,23.27,2.35,34.81,4.12,7.87,1.2,15.58,3.42,23.35,5.22,1.08.25,2.28.47,3.13,1.09.74.54,1.07,1.62,1.58,2.47-.93.34-1.96,1.12-2.76.94-5.7-1.29-11.33-2.92-17.04-4.15-5.07-1.1-10.22-1.82-15.57-2.78Z"/>
        <path class="cls-22" d="M184.77,231.45c7.16,1.43,14.08,2.76,20.99,4.16,1.49.3,2.68,1.11,2.27,2.85-.46,1.97-1.91,1.21-3.14.92-14.47-3.45-29.12-5.76-43.99-6.68-2.32-.14-4.68-.11-6.92-.6-1.07-.23-1.9-1.5-2.84-2.29,1.09-.64,2.24-1.91,3.25-1.81,10.06,1,20.1,2.23,30.38,3.46Z"/>
        <path class="cls-3" d="M394.79,335.19c-.62,1.67-.09,2.63,1.87,2.92.7.1,1.35.48,2.15.89-11.09,7-23.19,11.87-36.18,15.39-3.56-.95-1.89-3.17-1.81-4.93.29-.12.57-.24,1.03-.2.29.28.4.39.51.51.06-.26.13-.51.19-.77.16-.08.32-.16.78-.15.5-.05.69-.19.89-.34,10.12-4.42,20.24-8.84,30.55-13.32Z"/>
        <path class="cls-31" d="M296.14,358.99c-.73-.58-1.27-1.08-1.79-1.56,1.39-2.19,3.77-2.27,6.35-2.44,1.94-.13,3.93-1.07,5.68-2.03,2.43-1.33,4.68-1.52,7.24-.05.24.41.27.83.32,1.54.09.42.18.54.27.65,1.76.02,3.52.03,5.48.29-1.5,1.57-3.2,2.9-4.74,4.1,3.12,0,6.71-.05,10.31.03,1.43.03,2.85.37,4.28.56-5.15.26-10.31.52-15.63.78-.08,1.82-.17,3.67-.25,5.49-5.92-2.49-11.63-4.88-17.53-7.36Z"/>
        <path class="cls-16" d="M195.68,149.88c-1.28-.07-2.58-.06-3.85-.22-12.49-1.55-24.97-3.14-37.46-4.66-1.58-.19-3.19-.24-3.01-2.31.17-1.94,1.76-1.83,3.2-1.65,13.04,1.66,26.07,3.32,39.11,5.02.79.1,1.53.56,2.47,1.18-.04,1.1-.24,1.87-.45,2.64Z"/>
        <path class="cls-22" d="M167.19,211.86c9.62,1.36,19.25,2.63,28.85,4.12,3.84.6,7.6,1.65,11.38,2.58,1.53.37,3.03,1.2,2.48,2.99-.57,1.84-2.2,1.03-3.55.79-12.76-2.26-25.52-4.5-38.54-7.04-.38-1.35-.5-2.39-.62-3.44Z"/>
        <path class="cls-22" d="M206.45,149.43c7.8,2.35,15.69,4.44,23.36,7.14,5.32,1.87,10.38,4.49,15.46,6.99.97.47,2.23,2.21,1.98,2.86-.72,1.85-2.35,1.13-3.74.42-10.7-5.45-21.9-9.6-33.54-12.65-1.4-.37-2.68-1.17-4.1-2.13.13-1.12.35-1.87.57-2.63Z"/>
        <path class="cls-15" d="M91.6,301.8c1.54,1.84,3.73,1.85,5.95,1.87,20.65.19,41.29.4,62.15.69-.63.69-1.46,1.83-2.31,1.84-14.99.11-29.98.18-44.96.03-6.24-.06-12.47-.66-18.7-1.06-2-.13-3.3-.88-2.14-3.36Z"/>
        <path class="cls-6" d="M329.8,360.13c-1.68-.25-3.1-.58-4.54-.61-3.6-.08-7.2-.03-10.31-.03,1.54-1.2,3.24-2.53,4.99-4.05,1.02-.23,1.98-.28,3.22-.11.81.4,1.35.59,1.88.77,0-.32,0-.64,0-.96,5.27-.38,10.53-.77,15.87-.97-.63.42-1.36.59-2.02.91-.72.34-1.37.8-2.05,1.21.67.66,1.36,1.88,2.02,1.86,2.27-.05,4.69-.13,6.74-.95,2.73-1.1,5.3-.85,7.99-.44-7.85,1.14-15.7,2.28-23.81,3.37Z"/>
        <path class="cls-31" d="M369.27,277.11c3.8,3.74,7.46,7.34,11.12,10.94-.09.25-.18.49-.27.74-4.04,0-8.08.05-12.11-.07-.46-.01-1.26-.93-1.28-1.45-.11-3.89-.06-7.78-.06-12.45,1.18,1.03,1.82,1.58,2.6,2.29Z"/>
        <path class="cls-28" d="M353.84,356.79c-2.92-.44-5.49-.68-8.22.41-2.05.82-4.47.9-6.74.95-.66.01-1.35-1.21-2.02-1.86.68-.41,1.34-.88,2.05-1.21.66-.31,1.39-.49,2.23-.88.14-.15.33-.25.69-.23,1.73-.42,3.69,1.14,4.5-1.16.22-.09.44-.19.9-.11.38.05.52-.07.65-.19,4.16-1.01,8.31-2.01,12.7-3.03.14,1.75-1.52,3.97,1.82,4.91-2.7.91-5.52,1.67-8.58,2.41Z"/>
        <path class="cls-8" d="M94.48,319.47c.86-.23,1.84-.54,2.81-.54,36.48-.03,72.95-.03,109.43,0,.95,0,1.9.36,2.92.76-1.78.13-3.64,0-5.49,0-35.99-.02-71.99-.02-108.43-.13-.59-.09-.73-.09-.88-.08,0,0-.25.05-.37,0Z"/>
        <path class="cls-32" d="M166.97,211.79c.34,1.12.46,2.16.67,3.38-4.37-.09-8.82-.35-13.28-.58-1.6-.08-3.27-.36-3.13-2.28.16-2.13,1.95-2.02,3.62-1.83,3.96.44,7.93.83,12.11,1.31Z"/>
        <path class="cls-13" d="M401.85,436.02c.36.67.97,1.59.98,2.51.07,10.74.1,21.48,0,32.21-.02,2.23.57,3.09,2.94,2.94,3.87-.25,7.76-.25,11.83-.46-.25.38-.68,1.27-1.13,1.27-4.73.1-9.46.06-14.64.06,0-12.94,0-25.61.03-38.53Z"/>
        <path class="cls-14" d="M94.44,422.07c.05,3.48.09,6.96-.09,10.78-.12.84-.02,1.34.08,1.84.05,4.39.1,8.79-.1,13.58-.13,3.97,0,7.55.12,11.12.05.24.1.48.07.89-.48-.51-1.23-1.18-1.23-1.86-.06-19.17-.06-38.33-.02-57.5,0-.6.51-1.2,1.02-1.82.25.55.27,1.11.03,2.03-.32,6.93-.4,13.5-.45,20.07,0,.29.36.58.56.87Z"/>
        <path class="cls-30" d="M398.09,322.43c-.14,2.45-1.4,2.72-3.21,1.79-2.38-1.24-4.79-2.43-7.05-3.86-.65-.41-.83-1.56-1.22-2.37.95-.22,2.13-.91,2.8-.58,2.95,1.46,5.75,3.2,8.68,5.03Z"/>
        <path class="cls-30" d="M393.1,298.28c-1.43.72-2.62,1.5-3.94,1.88-.69.2-2.03-.08-2.29-.55-.3-.56,0-2,.49-2.29,2.71-1.58,5.53-3,8.41-4.26.54-.23,1.94.34,2.19.88.26.54-.19,1.81-.75,2.22-1.17.86-2.61,1.37-4.12,2.12Z"/>
        <path class="cls-30" d="M399.86,308.5c-.16.61-.34,1.36-.56,1.37-3.72.13-7.46.38-11.17.12-1.19-.08-.95-2.81.42-2.91,3.4-.24,6.84-.09,10.25,0,.35.01.68.78,1.05,1.41Z"/>
        <path class="cls-30" d="M320.41,322.07c2.83-1.71,5.49-3.36,8.3-4.71.67-.32,1.84.36,2.78.57-.35.82-.47,1.98-1.1,2.38-2.31,1.49-4.74,2.81-7.2,4.05-1.95.99-2.71.37-2.77-2.3Z"/>
        <path class="cls-30" d="M329.99,307.31c1.23,1.97.5,3.02-1.43,3.12-2.78.14-5.58.14-8.34-.07-.69-.05-1.3-1.17-1.94-1.8.62-.56,1.23-1.6,1.86-1.61,3.22-.07,6.45.11,9.86.36Z"/>
        <path class="cls-13" d="M417.86,471.74c-.36-.33-.93-.91-.93-1.49-.04-12.67-.02-25.34,0-38.01,0-.17.11-.34.33-.68.33,1.82.65,3.81.66,5.8.04,11.38.01,22.76-.05,34.39Z"/>
        <path class="cls-8" d="M91.06,460.4c-.02-22.2-.04-44.41-.05-66.61,0-.35.14-.71.39-1.21.27,6.14.43,12.43.45,18.73.05,15.64.04,31.27-.04,47.24-.11.52-.13.7-.15.88-.04.23-.08.47-.29.84-.16.14-.32.13-.32.13Z"/>
        <path class="cls-8" d="M3.85,474.31c.56-.29,1.33-.66,2.1-.66,10.76-.04,21.52-.04,32.27,0,.76,0,1.51.37,2.33.78-11.1.17-22.27.12-33.44.08-1.02,0-2.04-.06-3.27-.2Z"/>
        <path class="cls-8" d="M61.61,474.59c.13-.32.52-.91.91-.91,11.44.02,22.88.09,34.47.33-.84.28-1.84.48-2.84.48-10.76.05-21.52.08-32.55.1Z"/>
        <path class="cls-8" d="M100.66,470.11c-.28-.5-.68-1.25-.68-2-.03-21.02-.03-42.04-.01-63.06,0-.44.14-.89.39-1.49.24.38.37.92.37,1.46,0,21.61,0,43.23-.07,65.09Z"/>
        <path class="cls-12" d="M476.74,152.95c.23,2.17-.5,3.47-3.08,3.51-1.24-.81-2.13-1.54-3.03-2.26-.63-.51-1.26-1.03-2.13-1.73.83-.76,1.72-1.56,2.68-2.55,1.89.83,3.69,1.84,5.55,3.03Z"/>
        <path class="cls-14" d="M206.25,149.33c-.02.86-.24,1.61-.47,2.56-3.25-.48-6.48-1.17-9.9-1.93.01-.86.22-1.63.42-2.61,3.24.49,6.5,1.18,9.96,1.98Z"/>
        <path class="cls-11" d="M338.29,257.66c.81.23,1.63.59,2.26,1.15,1.95,1.73,3.83,3.54,5.81,5.53-.39.27-.84.37-1.29.38-6.96.16-7.05.06-6.78-7.07Z"/>
        <path class="cls-13" d="M114.22,117.45c-1.55,2.23-4.21,1.58-6.58,1.63-2.38.05-4.76-.26-7.14-.47-3.11-.28-6.04.01-8.69,2.19.64-2.51,2.72-2.97,5.06-3,5.71-.07,11.43-.13,17.36-.35Z"/>
        <path class="cls-28" d="M365.83,258.83c-.38-.23-.97-.7-.97-1.18-.05-5.75-.03-11.5.01-17.25,0-.31.32-.62.73-1.03.26,6.34.27,12.77.23,19.46Z"/>
        <path class="cls-15" d="M164.36,304.86c1.14-.25,2.29-.29,3.67-.26-.2.6-.7,1.61-1.08,1.57-.89-.09-1.73-.69-2.6-1.31Z"/>
        <path class="cls-11" d="M338.31,251.62c2.16.65,1.58,1.81.26,3.06-.24-.93-.29-1.88-.26-3.06Z"/>
        <path class="cls-6" d="M346.11,352.78c-.57,2.32-2.54.77-4.16,1.2,1.14-.42,2.53-.82,4.16-1.2Z"/>
        <path class="cls-14" d="M94.24,461.6c.27.91.32,1.85.29,3.01-1.9-.62-1.76-1.73-.29-3.01Z"/>
        <path class="cls-2" d="M316.08,214.83c1.33-.31,2.48-.14,2.21,1.92-.72-.43-1.43-1.09-2.21-1.92Z"/>
        <path class="cls-31" d="M324.85,355.09c.21.37.21.69.2,1.01-.54-.18-1.07-.37-1.64-.72.39-.23.81-.28,1.44-.29Z"/>
        <path class="cls-28" d="M362.42,348.99c.09.26.02.52-.04.78-.11-.12-.23-.23-.35-.49.07-.19.16-.24.4-.29Z"/>
        <path class="cls-18" d="M225.23,332.04c.17-.02.42.05.7.28-.19.04-.4-.07-.7-.28Z"/>
        <path class="cls-28" d="M364.05,348.51c0,.14-.2.29-.59.43,0-.14.2-.29.59-.43Z"/>
        <path class="cls-18" d="M314.16,355.01s-.13-.13-.26-.35c.06,0,.15.12.26.35Z"/>
        <path class="cls-6" d="M347.76,352.48c0,.14-.14.26-.33.24-.05-.14.2-.25.33-.24Z"/>
        <path class="cls-18" d="M224.83,331.67c.06-.03.14-.06.12-.03-.09.06-.11.04-.12.03Z"/>
        <path class="cls-18" d="M91.03,460.43s.19-.02.27,0c.12.2.06.35-.21.51-.12.05-.18-.04-.18-.15s.03-.25.03-.25c0,0,.06-.06.09-.1Z"/>
        <path class="cls-10" d="M94.94,319.56c.06-.09.2-.1.55-.07-.01.08-.24.12-.55.07Z"/>
        <path class="cls-32" d="M91.82,459.35c-.13-.11-.12-.29,0-.56.12.1.13.3,0,.56Z"/>
        <path class="cls-38" d="M116.27,116.67c0-1.7.09-3.15.11-4.6.04-3.47.42-3.84,4.07-3.81,1.39.01,2.78.05,4.43.35.27,4.53.29,8.78.29,13.03,0,43.97,0,87.93,0,131.9,0,4.36-.03,8.72.02,13.08.02,1.72.3,3.31,2.64,3.45,5.55.33,11.11.64,16.65,1.1,8.03.68,16.13,1.02,24.05,2.35,11.59,1.94,23.14,4.25,34.53,7.07,14.49,3.58,28.27,9.03,40.92,16.99.67.42,1.03,1.29,1.35,1.91-8.02-2.91-15.72-6.22-23.72-8.57-30.62-8.97-62.15-12.49-93.93-14.34-3.78-.22-7.53-.73-11.3-1.11-.02-13.89-.04-27.78-.06-42.16-.04-1.61-.08-2.73-.13-3.86.04-3.12.07-6.25.12-9.87-.03-3.08-.07-5.66-.11-8.23.04-1.85.07-3.7.11-6.03-.04-1.97-.08-3.46-.12-4.94.04-.25.07-.49.12-1.13-.03-.98-.07-1.57-.11-2.16.03-5.5.07-11,.11-16.97-.03-1.06-.08-1.64-.12-2.23.04-2.76.08-5.52.12-8.78-.03-3.99-.08-7.48-.12-10.97.04-1.67.07-3.33.12-5.47-.04-1.23-.08-2-.12-2.76.04-6.23.07-12.47.11-19.09-.04-.48-.07-.57-.11-.66.04-.25.07-.49.12-1.13-.03-.98-.07-1.57-.11-2.16.04-3.31.08-6.62.06-10.18Z"/>
        <path class="cls-21" d="M245.53,299.52c-.51-.66-.87-1.54-1.54-1.95-12.64-7.96-26.43-13.41-40.92-16.99-11.4-2.81-22.95-5.13-34.53-7.07-7.92-1.32-16.02-1.67-24.05-2.35-5.54-.47-11.1-.78-16.65-1.1-2.34-.14-2.62-1.73-2.64-3.45-.05-4.36-.02-8.72-.02-13.08,0-43.97,0-87.93,0-131.9,0-4.25-.02-8.5-.04-12.98,1.53-.19,3.06-.16,4.85.15.67,1.43,1.09,2.59,1.52,3.75.05,7.48.14,14.95.15,22.43.02,18.16,0,36.33-.21,54.79-.13.8-.03,1.3.06,1.8.06.81.18,1.63.18,2.44,0,21.19-.02,42.38-.27,63.85-.04,1.14.16,2,.37,2.85,1.23,2,3.06,2.61,5.39,2.76,24.81,1.56,49.36,4.74,73.03,12.57,16.65,5.5,32.38,12.68,44.93,25.22,1.8,1.79,3.31,3.86,4.94,5.8.02.02-.08.19-.15.2-.15.04-.32.03-.69,0-1.76-1.08-3.33-2.11-5.21-3.34-3.04-1.6-5.77-3-8.5-4.41Z"/>
        <path class="cls-21" d="M253.94,307.46c-10.32-2.94-20.64-5.87-31.2-9.08-5.42-1.84-10.52-3.72-15.79-4.92-8.02-1.82-16.12-3.42-24.26-4.66-8.23-1.25-16.53-2.08-24.82-2.86-9.04-.86-18.1-1.44-27.15-2.17-4.96-.4-9.91-.89-15.28-1.37.29-1.72.53-3.2,1.01-4.64,1.13.21,2.03.48,2.94.52,26.91,1.4,53.71,3.74,80.1,9.36,19.17,4.09,37.96,9.23,55.01,19.19,0,0,0,0-.01.15-.19.27-.37.37-.55.48Z"/>
        <path class="cls-13" d="M254.48,306.62c-17.03-9.75-35.82-14.9-54.99-18.98-26.39-5.63-53.19-7.96-80.1-9.36-.91-.05-1.81-.31-3-.64-.42-.3-.57-.39-.82-.6-.33-.39-.59-.62-1.04-1.01.04.53.06.86.04,1.43-.05,2.09-.07,3.94-.08,5.78-.91-1.36-2.13-2.61-2.66-4.1-.59-1.65,2.21-3.94,4.36-3.66,3.98.37,7.73.88,11.51,1.1,31.78,1.84,63.31,5.37,93.93,14.34,8,2.34,15.7,5.66,23.72,8.57,2.92,1.45,5.65,2.85,8.5,4.4.29.94.46,1.74.64,2.73Z"/>
        <path class="cls-14" d="M115.63,277.2c.18.05.34.14.53.39-.19,1.61-.43,3.09-.72,4.81,5.37.48,10.32.96,15.28,1.37,9.05.74,18.11,1.32,27.15,2.17,8.29.79,16.59,1.61,24.82,2.86,8.14,1.24,16.23,2.84,24.26,4.66,5.27,1.2,10.37,3.07,15.59,4.83-12.1-2.07-24.17-4.87-36.4-6.47-18.43-2.4-36.97-3.96-55.94-5.91-4.91-.27-9.34-.51-13.77-.75,0,0-.06.12-.15-.06-.45-.4-.81-.61-1.18-.82,0,0-.02.03-.04-.13-.17-.3-.31-.45-.46-.6,0,0,.02-.2-.05-.27-.05-1.92-.04-3.76.18-5.85.44-.25.67-.25.9-.26Z"/>
        <path class="cls-13" d="M116.39,285.4c4.47.02,8.9.26,13.57.56-.45.22-1.14.52-1.83.53-3.55.05-7.09.05-10.64-.02-.39,0-.76-.55-1.1-1.07Z"/>
        <path class="cls-13" d="M115.98,158.17c.26,3.44.31,6.93.29,10.67-.32.15-.8.05-.8-.05.07-3.52.18-7.05.51-10.62Z"/>
        <path class="cls-13" d="M115.99,211.4c.26,2.53.3,5.1.27,7.93-.42-.09-1.11-.45-1.09-.78.12-2.37.38-4.73.82-7.15Z"/>
        <path class="cls-13" d="M115.99,200.42c.26,1.44.3,2.92.28,4.65-2.07-1.21-1.32-2.9-.28-4.65Z"/>
        <path class="cls-13" d="M253.98,307.65c.13-.29.31-.4.5-.66.92.27,1.83.7,2.73,1.13l-.39.92c-.93-.4-1.86-.8-2.84-1.39Z"/>
        <path class="cls-13" d="M116.01,229.49c.24,1.09.28,2.21.26,3.57-1.58-.89-1.55-2.16-.26-3.57Z"/>
        <path class="cls-13" d="M116,149.93c.24.73.29,1.49.27,2.48-1.77-.44-1.44-1.39-.27-2.48Z"/>
        <path class="cls-13" d="M116.01,177.91c.23.55.28,1.14.26,1.95-1.59-.25-1.55-.99-.26-1.95Z"/>
        <path class="cls-13" d="M116.02,126.88c.23.55.28,1.14.25,1.95-1.6-.25-1.56-.99-.25-1.95Z"/>
        <path class="cls-13" d="M116.01,197.12c.23.55.28,1.14.25,1.95-1.6-.25-1.56-.99-.25-1.95Z"/>
        <path class="cls-13" d="M115.12,284.49c.34.02.7.23,1.17.56-.31-.04-.73-.21-1.17-.56Z"/>
        <path class="cls-13" d="M116.06,130.15c.17.08.21.17.19.4-.29.05-.53-.04-.77-.13.15-.09.29-.17.58-.27Z"/>
        <path class="cls-13" d="M114.62,283.73c.12-.01.27.13.45.43-.12.01-.28-.13-.45-.43Z"/>
        <path class="cls-23" d="M49.06,465.68c-6.73-5.01-14.6-7.13-22.75-8.4-3.48-.54-7.04-.68-10.57-.86-1.78-.09-2.45-.76-2.44-2.51.05-19.92.06-39.83.04-59.75,0-1.56.47-2.48,2.18-2.45,11.98.26,23.59,1.91,34.02,9.06.21,20.69.24,41.02.21,61.35,0,1.19-.45,2.37-.69,3.56Z"/>
        <path class="cls-27" d="M52,450.72c0-16.07.02-31.88-.06-47.69,0-1.78.5-2.86,2.08-3.74,9.75-5.42,20.31-7.49,31.39-7.6,2.04-.02,2.15,1.22,2.15,2.73-.01,11.7.01,23.39.02,35.09,0,8.04-.06,16.08.02,24.12.02,1.97-.53,2.72-2.67,2.77-11.47.25-22.36,2.62-32.09,8.95-.12.08-.34,0-.83,0,0-4.78,0-9.59,0-14.65M73.37,429.17c1.43.96,2.85,1.91,4.82,3.23,0-10.49.02-20.31-.08-30.14,0-.45-1.19-1.31-1.74-1.25-2.96.31-5.89.91-8.84,1.3-1.81.23-2.46,1.01-2.44,2.86.11,8.5.06,17,.08,25.5,0,.41.11.82.22,1.66,1.82-1.27,3.4-2.22,4.77-3.38,1.08-.91,1.91-.89,3.21.23Z"/>
        <path class="cls-34" d="M49.22,465.78c.08-1.29.53-2.47.53-3.66.03-20.33,0-40.66-.04-61.25.29.49.9,1.24.9,1.99.06,20.14.06,40.27,0,60.41,0,.87-.8,1.74-1.39,2.51Z"/>
        <path class="cls-4" d="M94.5,421.82c-.26-.04-.62-.33-.62-.62.04-6.57.12-13.15.37-19.87.22,6.64.26,13.44.25,20.49Z"/>
        <path class="cls-4" d="M94.51,459.14c-.18-3.32-.31-6.89-.25-10.62.22,3.35.27,6.86.25,10.62Z"/>
        <path class="cls-4" d="M45.92,469.54c-.48-.13-.77-.4-1.06-.67.13-.11.36-.32.38-.3.3.26.58.55.68.97Z"/>
        <path class="cls-4" d="M94.49,434.48c-.16-.29-.26-.79-.21-1.38.19.33.23.75.21,1.38Z"/>
        <path class="cls-4" d="M56.93,468.77c-.27.23-.66.33-1.05.44.11-.23.22-.46.51-.76.26.02.34.11.54.33Z"/>
        <path class="cls-8" d="M90.86,460.53c.08,0,.05.14.02.2-.03.06-.2-.03-.2-.03,0,0,.1-.16.18-.17Z"/>
        <path class="cls-19" d="M258.98,270.17c-19.63-4.19-31.71-22.15-27.98-41.32,3.66-18.76,22.31-31.33,41.62-28.06,19.24,3.26,31.95,19.78,30,39-1.82,17.95-18.14,31.74-37.04,31.21-2.13-.06-4.25-.51-6.6-.83M287.69,233.02c0-2.1-.01-4.19-.02-6.29-.02-8.02-.02-7.97-8.36-7.91-2.18.01-2.93.73-2.9,2.88.09,7.93,0,15.87.01,23.8,0,8.19.01,8.13,8.38,8.12,2.17,0,2.96-.62,2.91-2.81-.12-5.74-.03-11.49-.02-17.78M271.3,240.16c0-.73.01-1.46,0-2.19-.18-8.96,1.37-7.53-8.1-7.79-2.49-.07-3.25.94-3.19,3.26.12,4.75-.03,9.5.03,14.25.08,6.77-.87,5.82,5.87,5.89.75,0,1.5-.06,2.24.03,2.38.29,3.39-.53,3.23-3.03-.2-3.28-.06-6.58-.07-10.41M248.66,253.63c1.39,0,2.84.23,4.16-.07.81-.18,2.01-1.13,2.05-1.8.21-3.17.23-6.37-.03-9.53-.06-.76-1.38-1.9-2.24-2.02-2.09-.29-4.25-.06-6.39-.08-1.79-.02-2.47.89-2.44,2.56.04,2.27,0,4.55,0,6.82q.03,4.11,4.87,4.12Z"/>
        <path class="cls-23" d="M478,448.91c-3.03,15.34-20.07,16.75-27.56,9.75-6.22-5.82-6.9-13.14-4.92-20.79,1.66-6.4,6.03-10.34,12.74-11.62,10.13-1.93,18.89,4.74,19.95,15.34.23,2.34-.1,4.73-.22,7.33Z"/>
        <path class="cls-14" d="M369.31,305.18c-3.98,4.11-7.88,8.04-11.65,12.08-1.6,1.72-2.9,1.91-4.59.12-2.02-2.14-4.36-3.99-6.32-6.18-.56-.63-.72-2.23-.3-2.96.79-1.36,2.21-1.24,3.26-.06,1.65,1.85,3.2,3.78,4.33,5.13,4.99-4.56,9.23-8.52,13.58-12.33.76-.67,2.22-1.28,3.03-1,1.28.44,1.93,1.73.71,3.08-.62.68-1.28,1.33-2.06,2.13Z"/>
        <path class="cls-14" d="M470.42,154.22c1.11.71,2,1.44,3,2.28.75,2.14.58,4.13-1.45,5.11-1.15.56-2.93.64-4.13.18-2.07-.79-2.57-2.69-1.91-5.12.56-.82.95-1.32,1.35-1.81.97-.21,1.95-.42,3.14-.64Z"/>
        <path class="cls-14" d="M460.3,248.12c2.59-2.52,4.74-2.67,6.57-.66,1.59,1.75,1.54,4.63-.52,5.73-1.24.67-3.31.84-4.57.28-2.13-.93-2.45-3.02-1.48-5.36Z"/>
        <path class="cls-15" d="M443.65,200.48c-1.41-1.81-1.72-3.68-.25-5.14.91-.9,2.66-1.65,3.84-1.45,1.18.2,2.76,1.53,3.03,2.64.3,1.24-.27,3.12-1.16,4.11-1.49,1.64-3.52,1.22-5.46-.16Z"/>
        <path class="cls-12" d="M467.27,154.65c-.39.7-.79,1.2-1.3,1.8-.73-.46-1.33-1.03-1.94-1.61.61-.49,1.17-1.15,1.87-1.41.29-.11.9.65,1.37,1.21Z"/>
        <path class="cls-29" d="M343.98,56.4c-1.68,3.03-3.28,5.86-5.17,9.21-5.12-8.26-12.36-10.22-20.93-10.25-8.62-.02-15.8,2.08-20.45,9.7-11.94-11.48-9.07-32.1,5.6-41.17,10.05-6.21,22.42-5.67,31.7,1.38,9.86,7.5,13.33,19.02,9.26,31.13M320.02,29.14c-1.21-.02-2.43-.15-3.62-.04-8.7.82-13.45,11.05-8.4,17.99,3.15,4.32,8.52,6.08,13.57,4.44,4.98-1.62,8.31-5.98,8.3-10.85-.01-5.42-3.61-9.82-9.85-11.54Z"/>
        <path class="cls-14" d="M131.56,112.34c-.49-.94-.91-2.1-1.36-3.46,2.86-.02.9,2.11,1.36,3.46Z"/>
        <path class="cls-14" d="M131.76,260.49c-.19-.63-.39-1.48-.43-2.41.25.68.33,1.43.43,2.41Z"/>
        <path class="cls-14" d="M131.56,191.38c-.16-.31-.25-.81-.2-1.36.18.36.23.76.2,1.36Z"/>
        <path class="cls-15" d="M335.37,107.63c-.98-.61-1.7-1.22-2.43-1.83.78-.64,1.55-1.82,2.35-1.84,6.4-.16,12.82-.18,19.22-.01.83.02,1.63,1.32,2.44,2.03-.89.53-1.76,1.51-2.66,1.53-6.22.15-12.44.1-18.92.12Z"/>
        <path class="cls-15" d="M345.21,113.17c-3.45-.01-6.62.05-9.79-.07-.78-.03-1.54-.64-2.32-.98.72-.56,1.43-1.59,2.15-1.61,6.62-.12,13.24-.1,19.86.02.61.01,1.21,1.01,1.81,1.55-.64.35-1.28.99-1.93,1.01-3.17.12-6.34.07-9.79.08Z"/>
        <path class="cls-15" d="M344.49,117.54c.72,0,1.28-.15,1.63.04.79.44,1.48,1.05,2.22,1.59-.74.37-1.46,1.04-2.21,1.07-3.52.12-7.06.13-10.58.01-.71-.02-1.4-.74-2.09-1.14.71-.52,1.4-1.45,2.14-1.5,2.87-.18,5.75-.07,8.89-.07Z"/>
        <path class="cls-11" d="M358.65,187.68c.09-.04.19-.09.44-.09.05.21-.06.39-.3.64-.14.08-.14.07-.14-.08,0-.26,0-.36,0-.47Z"/>
        <path class="cls-14" d="M345.77,147.14c-2.42,0-4.58.14-6.71-.05-.73-.06-1.38-.91-2.07-1.41.7-.57,1.38-1.63,2.09-1.65,5.5-.14,11.01-.12,16.51,0,.64.01,1.26,1.01,1.9,1.55-.64.51-1.26,1.43-1.93,1.46-3.16.16-6.34.08-9.79.09Z"/>
        <path class="cls-15" d="M341.91,152.44c4.37,0,8.47-.11,12.57.07,1.02.05,2,1.02,3,1.57-.95.49-1.88,1.37-2.84,1.4-4.93.14-9.88.15-14.81,0-.96-.03-1.9-.93-2.85-1.44.99-.54,1.95-1.15,2.99-1.59.47-.2,1.1-.03,1.93-.03Z"/>
        <path class="cls-14" d="M337.76,160.97c3.68-.23,7.19-.41,10.7-.36.65.01,1.29.99,1.94,1.52-.69.57-1.35,1.57-2.08,1.62-2.95.21-5.93.21-8.9.11-1.7-.06-3.01-.71-1.67-2.89Z"/>
        <path class="cls-6" d="M358.39,187.62c.26.16.26.26.26.52-3.56.16-7.11.16-10.93.17-2.08-.14-3.89-.29-5.84-.65,5.33-.17,10.8-.13,16.52-.04Z"/>
        <path class="cls-15" d="M396.64,118.62c-4.14-.36-8.03-.66-11.89-1.14-.68-.09-1.26-.96-1.89-1.47.73-.41,1.46-1.18,2.17-1.16,3.43.11,6.86.44,10.29.69,1.76.13,3.56.08,5.27.44.79.17,1.4,1.14,2.09,1.74-.82.45-1.61,1.16-2.48,1.27-1.06.14-2.2-.22-3.55-.37Z"/>
        <path class="cls-38" d="M389.58,125.71c-1.82-.18-3.42-.19-4.93-.56-.84-.21-1.52-1.01-2.28-1.54.73-.38,1.47-1.13,2.18-1.09,5.18.27,10.35.65,15.51,1.13.58.05,1.09.93,1.63,1.42-.62.41-1.25,1.19-1.87,1.18-3.33-.07-6.66-.33-10.24-.54Z"/>
        <path class="cls-38" d="M387.68,132.88c-1.62-.15-3.04-.15-4.36-.5-.59-.16-.99-1-1.48-1.53.63-.41,1.27-1.18,1.9-1.17,2.58.05,5.17.24,7.72.6.61.09,1.1,1.02,1.64,1.56-.72.46-1.39,1.17-2.17,1.31-.96.16-2-.15-3.26-.27Z"/>
        <path class="cls-3" d="M374.5,187.07c1.27-.3,2.79-.54,4.56-.76-1.27.29-2.79.55-4.56.76Z"/>
        <path class="cls-38" d="M297.53,139.28c4.18-1.03,8.15-2,12.14-2.89,1.45-.33,3.03-.72,3.56,2.06-3.75.88-7.49,1.79-11.24,2.63-1.26.28-2.58.63-3.85.55-1.55-.1-2.34-.87-.62-2.35Z"/>
        <path class="cls-15" d="M307.17,132.91c-3.29.72-6.33,1.53-9.41,2.04-.87.14-1.88-.57-2.83-.89.74-.58,1.4-1.47,2.24-1.69,3.57-.91,7.18-1.72,10.81-2.32,1.12-.19,2.38.4,3.58.64-.93.64-1.84,1.32-2.81,1.89-.37.22-.89.21-1.57.32Z"/>
        <path class="cls-15" d="M307.21,125.82c-3.83.91-7.42,1.86-11.06,2.56-.85.16-1.87-.58-2.81-.9.73-.58,1.37-1.47,2.19-1.68,3.77-.98,7.57-1.84,11.4-2.56.91-.17,1.97.36,2.96.58-.82.65-1.63,1.31-2.67,2.01Z"/>
        <path class="cls-2" d="M330.16,187c1.47-.11,3-.02,4.75.13-1.42.07-3.05.06-4.75-.13Z"/>
        <path class="cls-15" d="M495.17,194.33c2.82,2.88,2.5,6.35-.65,6.98-1.42.28-3.57-.4-4.56-1.41-.77-.78-.77-3-.21-4.17.99-2.05,3.03-2.51,5.43-1.4Z"/>
        <path class="cls-38" d="M381.11,159.24c-.92-.42-1.59-.84-2.26-1.25.66-.32,1.33-.92,1.98-.9,2.4.05,4.8.23,7.18.53.52.06.95.8,1.42,1.23-.48.31-.97.9-1.44.89-2.21-.07-4.42-.31-6.88-.49Z"/>
        <path class="cls-15" d="M385.96,164.18c1.09.47,1.93.94,2.77,1.4-.8.25-1.61.72-2.41.7-2.3-.05-4.61-.23-6.89-.52-.55-.07-1.03-.77-1.54-1.18.59-.32,1.18-.94,1.75-.92,2.02.05,4.04.32,6.31.51Z"/>
        <path class="cls-21" d="M115.56,277.03c-.16.16-.39.17-.79.17-.19-.32-.22-.65-.25-1.18.45.39.71.62,1.04,1.01Z"/>
        <path class="cls-33" d="M73.2,429.06c-1.12-1.01-1.96-1.03-3.04-.12-1.37,1.17-2.95,2.11-4.77,3.38-.12-.85-.22-1.26-.22-1.66-.02-8.5.02-17-.08-25.5-.02-1.85.63-2.62,2.44-2.86,2.95-.38,5.88-.98,8.84-1.3.56-.06,1.74.8,1.74,1.25.1,9.83.08,19.66.08,30.14-1.96-1.32-3.39-2.27-4.98-3.34Z"/>
        <path class="cls-39" d="M287.69,233.3c0,6.02-.1,11.77.02,17.51.05,2.19-.74,2.81-2.91,2.81-8.37,0-8.38.07-8.38-8.12,0-7.93.07-15.87-.01-23.8-.02-2.14.72-2.86,2.9-2.88,8.34-.06,8.34-.11,8.36,7.91,0,2.1.01,4.19.02,6.57Z"/>
        <path class="cls-39" d="M271.3,240.43c0,3.56-.13,6.86.07,10.14.16,2.5-.85,3.33-3.23,3.03-.73-.09-1.49-.02-2.24-.03-6.74-.06-5.79.89-5.87-5.89-.05-4.75.09-9.5-.03-14.25-.06-2.32.7-3.33,3.19-3.26,9.47.26,7.92-1.17,8.1,7.79.01.73,0,1.46,0,2.47Z"/>
        <path class="cls-12" d="M248.39,253.63q-4.57-.02-4.61-4.12c-.01-2.27.03-4.55,0-6.82-.03-1.67.64-2.58,2.44-2.56,2.13.02,4.3-.21,6.39.08.86.12,2.18,1.26,2.24,2.02.26,3.16.24,6.36.03,9.53-.04.67-1.24,1.61-2.05,1.8-1.32.3-2.76.07-4.42.07Z"/>
        <path class="cls-20" d="M320.26,29.18c6,1.68,9.6,6.08,9.61,11.5.01,4.88-3.32,9.23-8.3,10.85-5.05,1.64-10.42-.11-13.57-4.44-5.06-6.95-.3-17.17,8.4-17.99,1.19-.11,2.41.02,3.86.08Z"/>
      </g>
    </g>
  </g>
</svg>